<svg xmlns="http://www.w3.org/2000/svg" viewBox="0 0 400 200">
  <!-- Background -->
  <rect width="400" height="200" fill="#22577A" rx="10" ry="10"/>
  
  <!-- Circular frame -->
  <circle cx="200" cy="90" r="60" fill="none" stroke="#ffffff" stroke-width="3"/>
  
  <!-- Simplified house/nest shape -->
  <path d="M170,100 L200,70 L230,100" fill="none" stroke="#ffffff" stroke-width="3" stroke-linecap="round" stroke-linejoin="round"/>
  
  <!-- House base -->
  <path d="M175,100 L175,120 L225,120 L225,100" fill="none" stroke="#ffffff" stroke-width="3" stroke-linecap="round" stroke-linejoin="round"/>
  
  <!-- Door -->
  <path d="M195,120 L195,105 L205,105 L205,120" fill="none" stroke="#ffffff" stroke-width="2" stroke-linecap="round" stroke-linejoin="round"/>
  
  <!-- Nest element integrated with roof -->
  <path d="M185,85 C190,75 210,75 215,85" fill="none" stroke="#FFD166" stroke-width="2.5" stroke-linecap="round"/>
  
  <!-- Minimal bird -->
  <path d="M215,60 L220,55 L225,60" fill="none" stroke="#FFD166" stroke-width="2" stroke-linecap="round" stroke-linejoin="round"/>
  <circle cx="225" cy="60" r="1.5" fill="#FFD166"/>
  
  <!-- Travel elements: compass points -->
  <path d="M200,30 L200,40" stroke="#ffffff" stroke-width="2" stroke-linecap="round"/>
  <path d="M200,140 L200,150" stroke="#ffffff" stroke-width="2" stroke-linecap="round"/>
  <path d="M140,90 L150,90" stroke="#ffffff" stroke-width="2" stroke-linecap="round"/>
  <path d="M250,90 L260,90" stroke="#ffffff" stroke-width="2" stroke-linecap="round"/>
  
  <!-- Small directional indicators -->
  <text x="200" y="35" font-family="Arial, sans-serif" font-size="10" text-anchor="middle" fill="#ffffff">N</text>
  <text x="200" y="155" font-family="Arial, sans-serif" font-size="10" text-anchor="middle" fill="#ffffff">S</text>
  <text x="145" y="85" font-family="Arial, sans-serif" font-size="10" text-anchor="middle" fill="#ffffff">W</text>
  <text x="255" y="85" font-family="Arial, sans-serif" font-size="10" text-anchor="middle" fill="#ffffff">E</text>
  
  <!-- Company name -->
  <text x="200" y="170" font-family="Arial, sans-serif" font-size="26" font-weight="bold" text-anchor="middle">
    <tspan fill="#ffffff">Travel</tspan><tspan fill="#FFD166">Nest</tspan>
  </text>
  
  <!-- Tagline -->
  <text x="200" y="190" font-family="Arial, sans-serif" font-size="12" text-anchor="middle" fill="#ffffff">Destinations feel like home</text>
</svg>